<?xml version="1.0" encoding="UTF-8"?>
<svg id="Layer_1" data-name="Layer 1" xmlns="http://www.w3.org/2000/svg" viewBox="0 0 255.12 99.21">
  <defs>
    <style>
      .cls-1 {
        fill: #2ae18e;
        fill-rule: evenodd;
      }
    </style>
  </defs>
  <path class="cls-1" d="M115.79,80.25c-.38-.17-.75-.32-1.12-.44-.37-.13-.73-.24-1.09-.35-.4-.13-.78-.26-1.14-.4-.36-.14-.69-.29-.98-.46-.32-.21-.53-.5-.64-.87-.11-.37-.07-.72.1-1.06.13-.27.3-.47.51-.57.21-.1.42-.17.62-.19.2-.02.38-.02.54,0,.16.02.26.03.3.03.23.06.5.19.81.38.31.19.46.53.46,1.02h5.37c0-.78-.13-1.53-.38-2.25-.25-.72-.62-1.37-1.1-1.95-.48-.58-1.04-1.08-1.7-1.49-.66-.41-1.39-.71-2.19-.91-.83-.21-1.64-.29-2.45-.22-.8.06-1.56.25-2.25.56-.7.31-1.33.73-1.91,1.25-.57.53-1.05,1.15-1.43,1.87-.4.78-.64,1.6-.71,2.46-.07.86,0,1.69.22,2.49.22.8.59,1.56,1.1,2.25.51.7,1.13,1.28,1.87,1.75.57.36,1.14.65,1.71.86.57.21,1.12.4,1.65.57.3.11.58.2.84.29.26.09.51.18.75.29.3.15.53.32.71.51.18.19.32.38.41.56.1.18.15.36.17.52.02.17.03.31.03.41s-.01.24-.03.41c-.02.17-.08.35-.17.54-.1.19-.23.38-.41.56-.18.18-.42.33-.71.46-.42.19-.86.28-1.3.25-.44-.02-.86-.16-1.24-.41-.21-.13-.46-.37-.73-.71-.28-.35-.41-.84-.41-1.48h-5.37c0,1.4.32,2.68.95,3.86.63,1.18,1.52,2.13,2.66,2.87.65.42,1.35.74,2.08.94.73.2,1.46.3,2.2.3.57,0,1.14-.06,1.71-.17.57-.12,1.13-.3,1.68-.56,1.39-.64,2.49-1.57,3.28-2.79.79-1.23,1.19-2.58,1.19-4.06s-.39-2.89-1.18-4.11c-.79-1.22-1.88-2.14-3.27-2.78Z"/>
  <path class="cls-1" d="M143.1,85.05c-.33.76-.78,1.43-1.35,2-.57.57-1.24,1.02-2,1.35-.76.33-1.58.49-2.45.49s-1.68-.16-2.45-.49c-.76-.33-1.43-.78-2-1.35-.57-.57-1.02-1.24-1.35-2-.33-.76-.49-1.58-.49-2.45s.16-1.68.49-2.45c.33-.76.78-1.43,1.35-2,.57-.57,1.24-1.02,2-1.35.76-.33,1.58-.49,2.45-.49s1.68.17,2.45.49c.76.33,1.43.78,2,1.35s1.02,1.24,1.35,2c.33.76.49,1.58.49,2.45s-.16,1.68-.49,2.45h0ZM145.53,74.36c-1.06-1.05-2.29-1.88-3.71-2.49-1.42-.61-2.93-.92-4.53-.92s-3.12.31-4.53.92c-1.42.61-2.65,1.44-3.69,2.49-1.05,1.05-1.88,2.28-2.49,3.7-.61,1.42-.92,2.93-.92,4.54s.31,3.12.92,4.54c.61,1.42,1.44,2.65,2.49,3.7,1.05,1.05,2.28,1.88,3.69,2.49,1.42.61,2.93.92,4.53.92s3.12-.31,4.53-.92c1.42-.61,2.65-1.44,3.71-2.49,1.06-1.05,1.89-2.28,2.51-3.7.61-1.42.92-2.93.92-4.54s-.31-3.12-.92-4.54c-.61-1.42-1.45-2.65-2.51-3.7Z"/>
  <path class="cls-1" d="M160.58,78.12c.61-.61,1.31-1.07,2.08-1.38.77-.31,1.56-.46,2.37-.46s1.6.15,2.38.46c.78.31,1.48.77,2.1,1.38l3.78-3.78c-1.14-1.14-2.43-2-3.87-2.57-1.44-.57-2.91-.86-4.4-.86s-2.95.29-4.38.86c-1.43.57-2.71,1.43-3.86,2.57-1.1,1.1-1.94,2.36-2.52,3.76-.58,1.41-.87,2.91-.87,4.49s.29,3.08.87,4.46c.58,1.39,1.42,2.65,2.52,3.8,1.14,1.14,2.42,2,3.84,2.56,1.42.56,2.89.84,4.41.84s3-.28,4.41-.84c1.42-.56,2.7-1.41,3.84-2.56l-3.78-3.81c-.61.61-1.31,1.08-2.1,1.38-.78.31-1.58.46-2.38.46s-1.59-.15-2.37-.46c-.77-.31-1.47-.77-2.08-1.38-.59-.61-1.05-1.3-1.37-2.05-.32-.75-.48-1.55-.48-2.4s.16-1.65.48-2.41c.32-.76.77-1.45,1.37-2.06Z"/>
  <path class="cls-1" d="M184.08,78.12c.61-.61,1.31-1.07,2.08-1.38.77-.31,1.56-.46,2.37-.46s1.6.15,2.38.46c.78.31,1.48.77,2.1,1.38l3.78-3.78c-1.14-1.14-2.43-2-3.87-2.57-1.44-.57-2.91-.86-4.4-.86s-2.95.29-4.38.86c-1.43.57-2.71,1.43-3.86,2.57-1.1,1.1-1.94,2.36-2.52,3.76-.58,1.41-.87,2.91-.87,4.49s.29,3.08.87,4.46c.58,1.39,1.42,2.65,2.52,3.8,1.14,1.14,2.42,2,3.84,2.56,1.42.56,2.89.84,4.41.84s3-.28,4.41-.84c1.42-.56,2.7-1.41,3.84-2.56l-3.78-3.81c-.61.61-1.31,1.08-2.1,1.38-.78.31-1.58.46-2.38.46s-1.59-.15-2.37-.46c-.77-.31-1.47-.77-2.08-1.38-.59-.61-1.05-1.3-1.37-2.05-.32-.75-.48-1.55-.48-2.4s.16-1.65.48-2.41c.32-.76.77-1.45,1.37-2.06Z"/>
  <polygon class="cls-1" points="202.34 94.29 217.29 94.29 217.29 88.92 207.7 88.92 207.7 85.24 215.48 85.24 215.48 79.87 207.7 79.87 207.7 76.38 217.29 76.38 217.29 70.98 202.34 71.01 202.34 94.29"/>
  <path class="cls-1" d="M233,80.99c-.22.39-.53.74-.92,1.04-.39.3-.85.54-1.37.72-.52.18-1.06.28-1.64.3v-6.61c.57.02,1.12.12,1.64.3.52.18.97.42,1.37.72.39.3.7.64.92,1.02.22.38.33.8.33,1.24s-.11.87-.33,1.26h0ZM237.9,83.22c.53-1.06.79-2.22.79-3.49,0-1.16-.25-2.27-.75-3.31-.5-1.05-1.19-1.96-2.06-2.74-.88-.78-1.9-1.41-3.06-1.87-1.16-.47-2.41-.71-3.75-.73h-5.37v23.21h5.37v-5.87c.3-.02.58-.04.86-.06.27-.02.55-.05.83-.1l3.75,6.03h6.32l-5.14-8.31c.95-.78,1.69-1.7,2.22-2.76Z"/>
  <path class="cls-1" d="M20.18,52.48c1.9,1.85,4.05,3.27,6.45,4.27,2.41,1,5,1.49,7.77,1.49h.22c2.77-.05,5.39-.62,7.84-1.71,2.45-1.1,4.6-2.56,6.42-4.41,1.82-1.85,3.26-4.01,4.3-6.49,1.05-2.48,1.54-5.11,1.5-7.88V4.63h-12.33v33.19c0,1.12-.21,2.16-.62,3.14-.41.97-.97,1.82-1.68,2.55-.71.73-1.53,1.31-2.48,1.75-.95.44-1.98.66-3.1.66-2.24,0-4.13-.75-5.69-2.26-1.6-1.6-2.41-3.48-2.41-5.61V4.63h-12.33v33.48c.05,2.77.6,5.37,1.64,7.81,1.05,2.43,2.54,4.62,4.49,6.56Z"/>
  <polygon class="cls-1" points="97.2 25.34 62.05 25.27 62.05 37.6 97.2 37.67 97.2 25.34"/>
  <path class="cls-1" d="M116.82,17.03c1.36.05,2.64.35,3.83.91,1.19.56,2.22,1.29,3.1,2.19.88.9,1.57,1.96,2.08,3.17.51,1.22.77,2.51.77,3.87s-.26,2.65-.77,3.87c-.51,1.22-1.2,2.28-2.08,3.17-.87.9-1.91,1.63-3.1,2.19-1.19.56-2.47.87-3.83.91v-20.28h0ZM116.82,49.71c3.06-.05,5.93-.67,8.61-1.86,2.67-1.19,5.02-2.81,7.04-4.85,2.02-2.04,3.6-4.41,4.74-7.11,1.14-2.7,1.71-5.58,1.71-8.64s-.57-5.95-1.71-8.64c-1.14-2.7-2.72-5.07-4.74-7.11-2.02-2.04-4.37-3.67-7.04-4.89-2.67-1.21-5.54-1.85-8.61-1.9h-12.33v53.54h12.33v-8.53Z"/>
  <path class="cls-1" d="M158.55,17.25c1.31.05,2.56.28,3.76.7,1.19.42,2.24.96,3.14,1.65.9.68,1.6,1.46,2.11,2.35.51.88.77,1.83.77,2.86s-.26,1.99-.77,2.89c-.51.91-1.22,1.7-2.11,2.38-.9.68-1.95,1.23-3.14,1.65-1.19.42-2.44.65-3.76.7v-15.17h0ZM158.55,44.75c.68-.05,1.34-.1,1.97-.14.63-.05,1.26-.12,1.9-.22l8.61,13.86h14.52l-11.82-19.08c2.19-1.8,3.89-3.91,5.11-6.34,1.21-2.43,1.82-5.1,1.82-8.01,0-2.67-.57-5.21-1.71-7.61-1.14-2.4-2.72-4.5-4.74-6.3-2.02-1.8-4.36-3.23-7.04-4.3-2.68-1.07-5.54-1.63-8.61-1.67h-12.33v53.32h12.33v-13.49Z"/>
  <path class="cls-1" d="M200.74,25.78c.75-1.75,1.79-3.28,3.1-4.59,1.31-1.31,2.84-2.35,4.6-3.1,1.75-.75,3.62-1.13,5.62-1.13s3.87.38,5.62,1.13c1.75.75,3.28,1.79,4.6,3.1,1.31,1.31,2.35,2.84,3.1,4.59.75,1.75,1.13,3.62,1.13,5.62s-.38,3.87-1.13,5.62c-.75,1.75-1.79,3.28-3.1,4.59-1.31,1.31-2.84,2.35-4.6,3.1-1.75.76-3.62,1.13-5.62,1.13s-3.87-.37-5.62-1.13c-1.75-.75-3.28-1.79-4.6-3.1-1.31-1.31-2.35-2.84-3.1-4.59-.75-1.75-1.13-3.62-1.13-5.62s.38-3.87,1.13-5.62h0ZM195.11,50.33c2.4,2.41,5.23,4.32,8.49,5.72,3.25,1.41,6.73,2.12,10.42,2.12s7.16-.71,10.42-2.12c3.25-1.41,6.09-3.32,8.52-5.72,2.43-2.41,4.35-5.24,5.75-8.5,1.41-3.26,2.11-6.74,2.11-10.43s-.7-7.17-2.11-10.43c-1.41-3.26-3.33-6.09-5.75-8.5-2.43-2.41-5.27-4.32-8.52-5.73-3.25-1.41-6.73-2.11-10.42-2.11s-7.16.71-10.42,2.11c-3.25,1.41-6.08,3.32-8.49,5.73-2.4,2.41-4.31,5.24-5.72,8.5-1.41,3.26-2.11,6.74-2.11,10.43s.7,7.17,2.11,10.43c1.41,3.26,3.31,6.09,5.72,8.5Z"/>
</svg>